<mxfile host="app.diagrams.net" modified="2023-12-11T21:35:27.170Z" agent="Mozilla/5.0 (Windows NT 10.0; Win64; x64) AppleWebKit/537.36 (KHTML, like Gecko) Chrome/120.0.0.0 Safari/537.36" etag="jHUlSfnpIcdYN_T5x-Ie" version="22.1.7" type="device">
  <diagram name="Page-1" id="ynhe4Gc0JCFyJmqvGWD6">
    <mxGraphModel dx="1259" dy="712" grid="1" gridSize="10" guides="1" tooltips="1" connect="1" arrows="1" fold="1" page="1" pageScale="1" pageWidth="850" pageHeight="1100" math="0" shadow="0">
      <root>
        <mxCell id="0" />
        <mxCell id="1" parent="0" />
        <mxCell id="0dWzLBQ_PtCSA0FBDFgc-5" value="" style="edgeStyle=orthogonalEdgeStyle;rounded=0;orthogonalLoop=1;jettySize=auto;html=1;" edge="1" parent="1" source="0dWzLBQ_PtCSA0FBDFgc-1" target="0dWzLBQ_PtCSA0FBDFgc-4">
          <mxGeometry relative="1" as="geometry" />
        </mxCell>
        <mxCell id="0dWzLBQ_PtCSA0FBDFgc-1" value="User registration&lt;br&gt;successful" style="rounded=1;whiteSpace=wrap;html=1;" vertex="1" parent="1">
          <mxGeometry x="365" y="160" width="120" height="60" as="geometry" />
        </mxCell>
        <mxCell id="0dWzLBQ_PtCSA0FBDFgc-7" value="" style="edgeStyle=orthogonalEdgeStyle;rounded=0;orthogonalLoop=1;jettySize=auto;html=1;" edge="1" parent="1" source="0dWzLBQ_PtCSA0FBDFgc-4" target="0dWzLBQ_PtCSA0FBDFgc-6">
          <mxGeometry relative="1" as="geometry" />
        </mxCell>
        <mxCell id="0dWzLBQ_PtCSA0FBDFgc-4" value="Locally create folder with its username" style="rounded=0;whiteSpace=wrap;html=1;" vertex="1" parent="1">
          <mxGeometry x="365" y="260" width="120" height="60" as="geometry" />
        </mxCell>
        <mxCell id="0dWzLBQ_PtCSA0FBDFgc-9" value="" style="edgeStyle=orthogonalEdgeStyle;rounded=0;orthogonalLoop=1;jettySize=auto;html=1;" edge="1" parent="1" source="0dWzLBQ_PtCSA0FBDFgc-6" target="0dWzLBQ_PtCSA0FBDFgc-8">
          <mxGeometry relative="1" as="geometry" />
        </mxCell>
        <mxCell id="0dWzLBQ_PtCSA0FBDFgc-6" value="Encrypt folder&#39;s name with symmetric key generated at register" style="rounded=0;whiteSpace=wrap;html=1;" vertex="1" parent="1">
          <mxGeometry x="365" y="360" width="120" height="60" as="geometry" />
        </mxCell>
        <mxCell id="0dWzLBQ_PtCSA0FBDFgc-12" value="" style="edgeStyle=orthogonalEdgeStyle;rounded=0;orthogonalLoop=1;jettySize=auto;html=1;" edge="1" parent="1" source="0dWzLBQ_PtCSA0FBDFgc-8" target="0dWzLBQ_PtCSA0FBDFgc-11">
          <mxGeometry relative="1" as="geometry" />
        </mxCell>
        <mxCell id="0dWzLBQ_PtCSA0FBDFgc-8" value="Send folder with its encrypted name" style="rounded=0;whiteSpace=wrap;html=1;" vertex="1" parent="1">
          <mxGeometry x="365" y="460" width="120" height="60" as="geometry" />
        </mxCell>
        <mxCell id="0dWzLBQ_PtCSA0FBDFgc-11" value="Server fetches user&#39;s sym. key from user&#39;s metadata and places it in root metadata for the provided folder." style="rounded=0;whiteSpace=wrap;html=1;" vertex="1" parent="1">
          <mxGeometry x="338" y="560" width="175" height="90" as="geometry" />
        </mxCell>
      </root>
    </mxGraphModel>
  </diagram>
</mxfile>
